<?xml version="1.0" encoding="UTF-8" standalone="no"?>
<!DOCTYPE svg PUBLIC "-//W3C//DTD SVG 1.1//EN" "http://www.w3.org/Graphics/SVG/1.1/DTD/svg11.dtd">
<svg width="100%" height="100%" viewBox="0 0 600 400" version="1.1" xmlns="http://www.w3.org/2000/svg" xmlns:xlink="http://www.w3.org/1999/xlink" xml:space="preserve" xmlns:serif="http://www.serif.com/" style="fill-rule:evenodd;clip-rule:evenodd;stroke-linejoin:round;stroke-miterlimit:2;">
    <g transform="matrix(1,0,0,1,-4807,-664)">
        <g id="Artboard9" transform="matrix(1.06066,0,0,2.09424,-291.928,-726.576)">
            <rect x="4807.32" y="664" width="565.685" height="191" style="fill:none;"/>
            <clipPath id="_clip1">
                <rect x="4807.32" y="664" width="565.685" height="191"/>
            </clipPath>
            <g clip-path="url(#_clip1)">
                <g transform="matrix(1.56801e-16,-1.29694,1.02241,3.17069e-17,4600.7,5053.3)">
                    <g transform="matrix(5.72421e-18,0.234143,-0.0934835,1.43371e-17,3477.51,109.941)">
                        <g>
                            <g transform="matrix(2.33478,-9.84362e-47,1.68842e-46,2.33478,-2067.13,-2133.17)">
                                <path d="M1599.97,1652.29C1610.39,1652.29 1617.89,1646.44 1617.89,1637.44L1617.89,1637.29C1617.89,1629.26 1612.49,1625.06 1600.79,1622.44C1589.17,1620.04 1586.54,1617.19 1586.54,1612.24L1586.54,1612.09C1586.54,1607.29 1590.82,1603.61 1597.72,1603.61C1603.12,1603.61 1607.99,1605.34 1612.87,1609.31L1616.32,1604.74C1610.92,1600.46 1605.59,1598.29 1597.87,1598.29C1587.89,1598.29 1580.62,1604.44 1580.62,1612.61L1580.62,1612.76C1580.62,1621.39 1586.17,1625.29 1598.24,1627.91C1609.27,1630.31 1611.89,1633.01 1611.89,1637.89L1611.89,1638.04C1611.89,1643.21 1607.32,1646.96 1600.19,1646.96C1592.92,1646.96 1587.67,1644.56 1582.19,1639.54L1578.52,1643.89C1584.82,1649.59 1591.57,1652.29 1599.97,1652.29Z" style="fill:rgb(164,165,147);fill-rule:nonzero;"/>
                                <path d="M1681.34,1652.44C1697.32,1652.44 1708.19,1639.76 1708.19,1625.29L1708.19,1625.14C1708.19,1610.66 1697.47,1598.14 1681.49,1598.14C1665.52,1598.14 1654.64,1610.81 1654.64,1625.29L1654.64,1625.44C1654.64,1639.91 1665.37,1652.44 1681.34,1652.44ZM1681.49,1646.96C1669.49,1646.96 1660.79,1637.21 1660.79,1625.29L1660.79,1625.14C1660.79,1613.21 1669.34,1603.61 1681.34,1603.61C1693.34,1603.61 1702.04,1613.36 1702.04,1625.29L1702.04,1625.44C1702.04,1637.36 1693.49,1646.96 1681.49,1646.96Z" style="fill:rgb(164,165,147);fill-rule:nonzero;"/>
                                <path d="M1771.72,1652.44C1781.17,1652.44 1787.32,1648.76 1792.72,1643.21L1788.82,1639.39C1783.79,1644.19 1779.07,1646.96 1771.87,1646.96C1760.24,1646.96 1751.54,1637.44 1751.54,1625.29L1751.54,1625.14C1751.54,1613.06 1760.24,1603.61 1771.87,1603.61C1779.07,1603.61 1783.87,1606.61 1788.37,1610.81L1792.42,1606.46C1787.24,1601.44 1781.47,1598.14 1771.94,1598.14C1756.57,1598.14 1745.39,1610.44 1745.39,1625.29L1745.39,1625.44C1745.39,1640.51 1756.57,1652.44 1771.72,1652.44Z" style="fill:rgb(164,165,147);fill-rule:nonzero;"/>
                                <rect x="1830.89" y="1599.04" width="5.925" height="52.5" style="fill:rgb(164,165,147);fill-rule:nonzero;"/>
                                <path d="M1874.69,1651.54L1880.77,1651.54L1886.99,1637.66L1915.57,1637.66L1921.72,1651.54L1928.09,1651.54L1904.17,1598.66L1898.62,1598.66L1874.69,1651.54ZM1889.32,1632.34L1901.32,1605.56L1913.24,1632.34L1889.32,1632.34Z" style="fill:rgb(164,165,147);fill-rule:nonzero;"/>
                                <path d="M1965.44,1651.54L2000.92,1651.54L2000.92,1646.06L1971.37,1646.06L1971.37,1599.04L1965.44,1599.04L1965.44,1651.54Z" style="fill:rgb(164,165,147);fill-rule:nonzero;"/>
                            </g>
                            <g transform="matrix(2.33478,-2.00678e-46,2.71084e-46,2.33478,-3246.31,-1888)">
                                <path d="M2083.57,1651.54L2089.64,1651.54L2095.87,1637.66L2124.44,1637.66L2130.59,1651.54L2136.97,1651.54L2113.04,1598.66L2107.49,1598.66L2083.57,1651.54ZM2098.19,1632.34L2110.19,1605.56L2122.12,1632.34L2098.19,1632.34Z" style="fill:rgb(164,165,147);fill-rule:nonzero;"/>
                                <path d="M2195.62,1652.44C2204.54,1652.44 2211.82,1648.84 2216.69,1644.41L2216.69,1623.49L2195.02,1623.49L2195.02,1628.81L2210.99,1628.81L2210.99,1641.86C2207.39,1644.79 2201.84,1647.11 2195.84,1647.11C2183.09,1647.11 2175.07,1637.81 2175.07,1625.29L2175.07,1625.14C2175.07,1613.44 2183.39,1603.61 2195.02,1603.61C2202.37,1603.61 2207.02,1606.09 2210.99,1609.61L2214.82,1605.11C2209.57,1600.69 2204.09,1598.14 2195.24,1598.14C2179.49,1598.14 2168.92,1610.89 2168.92,1625.29L2168.92,1625.44C2168.92,1640.44 2179.12,1652.44 2195.62,1652.44Z" style="fill:rgb(164,165,147);fill-rule:nonzero;"/>
                                <path d="M2257.04,1651.54L2295.37,1651.54L2295.37,1646.14L2262.97,1646.14L2262.97,1627.76L2291.62,1627.76L2291.62,1622.36L2262.97,1622.36L2262.97,1604.44L2294.99,1604.44L2294.99,1599.04L2257.04,1599.04L2257.04,1651.54Z" style="fill:rgb(164,165,147);fill-rule:nonzero;"/>
                                <path d="M2334.29,1651.54L2340.07,1651.54L2340.07,1608.49L2373.97,1651.54L2378.69,1651.54L2378.69,1599.04L2372.92,1599.04L2372.92,1641.11L2339.84,1599.04L2334.29,1599.04L2334.29,1651.54Z" style="fill:rgb(164,165,147);fill-rule:nonzero;"/>
                                <path d="M2444.54,1652.44C2453.99,1652.44 2460.14,1648.76 2465.54,1643.21L2461.64,1639.39C2456.62,1644.19 2451.89,1646.96 2444.69,1646.96C2433.07,1646.96 2424.37,1637.44 2424.37,1625.29L2424.37,1625.14C2424.37,1613.06 2433.07,1603.61 2444.69,1603.61C2451.89,1603.61 2456.69,1606.61 2461.19,1610.81L2465.24,1606.46C2460.07,1601.44 2454.29,1598.14 2444.77,1598.14C2429.39,1598.14 2418.22,1610.44 2418.22,1625.29L2418.22,1625.44C2418.22,1640.51 2429.39,1652.44 2444.54,1652.44Z" style="fill:rgb(164,165,147);fill-rule:nonzero;"/>
                                <path d="M2518.87,1651.54L2524.87,1651.54L2524.87,1630.69L2546.69,1599.04L2539.79,1599.04L2521.94,1625.29L2504.24,1599.04L2497.04,1599.04L2518.87,1630.76L2518.87,1651.54Z" style="fill:rgb(164,165,147);fill-rule:nonzero;"/>
                            </g>
                        </g>
                    </g>
                    <g transform="matrix(5.0962e-18,0.208454,-0.0832273,1.27641e-17,3414.06,-815.078)">
                        <g transform="matrix(0.682873,0,0,0.682873,-4657.82,479.006)">
                            <path d="M15314.3,337.173C15263.7,418.377 15267.4,588.35 15267.4,588.35L15267.4,1432.43C15267.4,1558.93 15216.1,1673.56 15133.3,1756.65C15050.1,1840.01 14935.1,1891.63 14808.2,1891.63C14554.8,1891.63 14349,1685.87 14349,1432.43C14349,1307.41 14399.1,1194 14480.2,1111.16C14480.7,1110.7 14481.1,1110.24 14481.6,1109.78C14503.1,1088.18 14531.7,1073.62 14563.6,1069.83C14569,1069.18 14574.5,1068.85 14580.2,1068.85C14657,1068.85 14719.4,1131.25 14719.4,1208.1C14719.4,1284.95 14657,1347.35 14580.2,1347.35C14503.3,1347.35 14440.9,1284.95 14440.9,1208.1C14440.9,1203.26 14441.2,1198.48 14441.6,1193.76C14396.8,1262.41 14370.8,1344.4 14370.8,1432.43C14370.8,1673.86 14566.8,1869.87 14808.2,1869.87C15145.1,1869.87 15133.3,1551.45 15133.3,1434.77L15133.3,539.267C14997.3,631.377 14852.9,653.864 14805.8,588.35C14780.9,553.72 14788,501.147 14819.5,444.581C14820.4,442.872 14821.4,441.16 14822.4,439.445C14830.9,426.108 14844.7,416.496 14860.9,413.616C14860.9,413.611 14861,413.606 14861,413.6L14861,413.616C14864.3,413.031 14867.6,412.724 14871.1,412.719C14871.1,412.719 14871.1,412.719 14871.2,412.719C14903,412.759 14928.8,438.605 14928.8,470.434C14928.8,502.263 14903,528.109 14871.2,528.149C14871.1,528.149 14871.1,528.149 14871.1,528.149C14846.8,528.118 14826,513.082 14817.5,491.83L14817.5,491.929C14805.4,526.764 14806,557.447 14821.8,579.408C14864.2,638.459 15001.6,613.025 15133.3,523.517C15138.2,520.173 15143.1,516.739 15148,513.216C15196.4,478.379 15237.1,439.564 15267.4,401.258C15278.6,387.038 15288.5,372.888 15296.7,359.037C15296.8,358.893 15296.9,358.749 15297,358.606C15302.3,349.748 15308.1,342.498 15314.3,337.173Z" style="fill:rgb(164,165,147);"/>
                        </g>
                        <g transform="matrix(0.675745,0,0,0.62244,-10080.8,-293.082)">
                            <path d="M23793,1897.68L23793,3034.54C23793,3501.67 23443.6,3887.03 23013.4,3887.03C22583.1,3887.03 22233.7,3501.67 22233.7,3034.54L22233.7,1897.68C22233.7,1430.55 22583.1,1044.2 23013.4,1044.2C23443.6,1044.2 23793,1430.55 23793,1897.68ZM23762.2,1897.68C23762.2,1449.02 23426.6,1077.67 23013.4,1077.67C22600.1,1077.67 22264.6,1449.02 22264.6,1897.68L22264.6,3034.54C22264.6,3483.2 22600.1,3853.56 23013.4,3853.56C23426.6,3853.56 23762.2,3483.2 23762.2,3034.54L23762.2,1897.68Z" style="fill:rgb(164,165,147);"/>
                        </g>
                    </g>
                </g>
            </g>
        </g>
    </g>
</svg>
