<?xml version="1.0" encoding="UTF-8" standalone="no"?>
<!DOCTYPE svg PUBLIC "-//W3C//DTD SVG 1.1//EN" "http://www.w3.org/Graphics/SVG/1.1/DTD/svg11.dtd">
<svg width="100%" height="100%" viewBox="0 0 100 60" version="1.1" xmlns="http://www.w3.org/2000/svg" xmlns:xlink="http://www.w3.org/1999/xlink" xml:space="preserve" xmlns:serif="http://www.serif.com/" style="fill-rule:evenodd;clip-rule:evenodd;stroke-linejoin:round;stroke-miterlimit:2;">
    <g transform="matrix(1,0,0,1,-1761,-643)">
        <g id="Artboard6" transform="matrix(0.390625,0,0,0.38961,1073.11,392.481)">
            <rect x="1761" y="643" width="256" height="154" style="fill:none;"/>
            <g>
                <g transform="matrix(0.0958736,0,0,0.0961233,5.09693,475.351)">
                    <path d="M19237.8,2002.94L19237.8,2884.35C19237.8,3010.85 19186.5,3125.48 19103.7,3208.57C19020.5,3291.93 18905.5,3343.54 18778.6,3343.54C18525.2,3343.54 18319.4,3137.78 18319.4,2884.35C18319.4,2759.33 18369.5,2645.92 18450.6,2563.08C18451.1,2562.61 18451.5,2562.15 18452,2561.7C18473.5,2540.1 18502.1,2525.54 18534,2521.75C18539.4,2521.1 18545,2520.77 18550.6,2520.77C18627.4,2520.77 18689.8,2583.16 18689.8,2660.02C18689.8,2736.87 18627.4,2799.27 18550.6,2799.27C18473.7,2799.27 18411.3,2736.87 18411.3,2660.02C18411.3,2655.18 18411.6,2650.39 18412,2645.68C18367.2,2714.33 18341.2,2796.32 18341.2,2884.35C18341.2,3125.77 18537.2,3321.78 18778.6,3321.78C19115.5,3321.78 19103.7,3003.37 19103.7,2886.69L19103.7,1953.86C18967.8,2045.97 18823.3,2068.46 18776.2,2002.94C18751.3,1968.31 18758.4,1915.74 18789.9,1859.17C18790.8,1857.46 18791.8,1855.75 18792.8,1854.04C18801.3,1840.7 18815.2,1831.09 18831.3,1828.21C18831.3,1828.2 18831.4,1828.2 18831.4,1828.19L18831.4,1828.21C18834.7,1827.62 18838,1827.32 18841.5,1827.31C18841.5,1827.31 18841.5,1827.31 18841.6,1827.31C18873.4,1827.35 18899.2,1853.2 18899.2,1885.03C18899.2,1916.86 18873.4,1942.7 18841.6,1942.74C18841.5,1942.74 18841.5,1942.74 18841.5,1942.74C18817.2,1942.71 18796.5,1927.67 18788,1906.42L18787.9,1906.52C18775.8,1941.36 18776.4,1972.04 18792.2,1994C18834.6,2053.05 18972,2027.62 19103.7,1938.11C19108.6,1934.77 19113.5,1931.33 19118.4,1927.81C19166.9,1892.97 19207.5,1854.16 19237.8,1815.85C19249.1,1801.63 19258.9,1787.48 19267.1,1773.63C19267.2,1773.49 19267.3,1773.34 19267.4,1773.2C19272.7,1764.34 19278.5,1757.09 19284.8,1751.77C19234.2,1832.97 19237.8,2002.94 19237.8,2002.94Z" style="fill:rgb(164,165,147);"/>
                </g>
                <g transform="matrix(0.0958736,0,0,0.0961233,288.576,586.326)">
                    <path d="M16651.9,1108.98L16651.9,1049.38C16651.9,1007.09 16617.5,972.75 16575.2,972.75C16540.2,972.75 16510.7,996.289 16501.5,1028.39C16519.4,1039.13 16531.3,1058.7 16531.3,1081.03C16531.3,1104.56 16518.1,1125.02 16498.6,1135.32C16490.1,1139.85 16480.3,1142.41 16470,1142.41C16436.1,1142.41 16408.6,1114.91 16408.6,1081.03C16408.6,1077.9 16408.8,1074.82 16409.3,1071.81C16414,1007.6 16486.9,967.077 16533,956.974C16576.6,947.413 16627.8,951.571 16668,956.974C16715.5,963.341 16792.1,1012.52 16792.1,1081.03L16792.1,1275C16792.1,1323.52 16791.2,1360.96 16792.1,1388.88C16793.2,1424.91 16789.2,1456.6 16825.2,1456.6C16871.5,1456.6 16893.1,1443.86 16911.9,1413.37C16897.6,1451.18 16849.6,1479.3 16792.1,1480.68C16790.6,1480.72 16789.1,1480.74 16787.7,1480.74C16727.2,1480.74 16671.2,1451.18 16656,1411.41C16629.1,1452.56 16574.5,1480.74 16511.7,1480.74C16422.2,1480.74 16349.6,1423.66 16349.6,1353.36C16349.6,1306.46 16381.9,1265.44 16430,1243.34C16501.7,1204.31 16651.9,1236.06 16651.9,1108.98ZM16498.6,1329.44C16496.2,1346.24 16496.7,1363.23 16498.6,1379.97C16501.9,1408.67 16533,1445.79 16575.2,1445.79C16617.5,1445.79 16651.9,1412.94 16651.9,1379.97L16651.9,1161.16C16651.7,1252.22 16512.7,1229.76 16498.6,1329.44ZM16721.9,1311.6C16718.7,1314.27 16718.2,1314.75 16722.2,1311.48C16722.1,1311.52 16722,1311.56 16721.9,1311.6Z" style="fill:rgb(164,165,147);"/>
                </g>
                <g transform="matrix(0.0958736,0,0,0.0961233,288.576,586.326)">
                    <path d="M17262.2,1449.02C17225,1469.25 17182.3,1480.74 17137,1480.74C16991.7,1480.74 16873.8,1362.8 16873.8,1217.54C16873.8,1072.28 16991.7,954.349 17137,954.349C17182.3,954.349 17225,965.838 17262.2,986.062L17262.2,827.469C17262.2,805.62 17244.5,787.881 17222.7,787.881L17196.6,787.881C17189.1,787.881 17183.1,781.817 17183.1,774.337C17183.1,772.862 17183.1,771.881 17183.1,771.881C17183.1,771.881 17362.3,771.881 17395,771.881C17397.9,771.881 17400.2,774.173 17400.2,777.001C17400.2,837.311 17400.2,1410.21 17400.2,1410.21C17400.2,1432.06 17417.9,1449.8 17439.8,1449.8C17439.8,1449.8 17454.3,1449.8 17465.8,1449.8C17473.3,1449.8 17479.3,1455.86 17479.3,1463.34C17479.3,1464.82 17479.3,1465.8 17479.3,1465.8L17267.4,1465.8C17266.1,1465.8 17264.7,1465.25 17263.8,1464.27C17262.8,1463.3 17262.2,1461.98 17262.2,1460.6C17262.2,1455.67 17262.2,1449.02 17262.2,1449.02ZM17242.2,1079.5C17242.2,1020.7 17194.5,972.961 17135.7,972.961C17076.9,972.961 17029.1,1020.7 17029.1,1079.5L17029.1,1355.58C17029.1,1414.38 17076.9,1462.12 17135.7,1462.12C17194.5,1462.12 17242.2,1414.38 17242.2,1355.58L17242.2,1079.5Z" style="fill:rgb(164,165,147);"/>
                </g>
                <g transform="matrix(0.0955927,0,0,0.0958416,290.103,594.724)">
                    <path d="M17681.8,1127.33L17681.8,1294.72C17681.8,1343.79 17721.7,1383.62 17770.7,1383.62C17819.8,1383.62 17859.6,1343.79 17859.6,1294.72L17859.6,1279.5C17859.6,1233.12 17897.2,1195.53 17943.6,1195.53L18018.9,1195.53C18020.9,1195.53 18022.9,1196.48 18024.1,1198.1C18025.4,1199.73 18025.8,1201.84 18025.3,1203.83C17995.1,1316.19 17892.5,1399.02 17770.7,1399.02C17625.3,1399.02 17507.2,1280.95 17507.2,1135.52C17507.2,990.093 17625.3,872.023 17770.7,872.023C17910.6,872.023 18025.2,981.324 18033.7,1119.13C18033.8,1121.26 18033.1,1123.34 18031.6,1124.89C18030.2,1126.44 18028.1,1127.32 18026,1127.32C17973.3,1127.33 17681.8,1127.33 17681.8,1127.33ZM17859.6,1111.27L17859.6,976.322C17859.6,927.256 17819.8,887.421 17770.7,887.421C17721.7,887.421 17681.8,927.256 17681.8,976.322L17681.8,1111.27L17859.6,1111.27Z" style="fill:rgb(164,165,147);"/>
                </g>
            </g>
        </g>
    </g>
</svg>
