<svg width="100%" height="100%" viewBox="0 0 128 128" version="1.1" xmlns="http://www.w3.org/2000/svg" xmlns:xlink="http://www.w3.org/1999/xlink" xml:space="preserve" style="fill-rule:evenodd;clip-rule:evenodd;stroke-linejoin:round;stroke-miterlimit:2;">
    <rect id="Artboard1" x="0" y="0" width="128" height="128" style="fill:none;"/>
    <g id="Artboard11" serif:id="Artboard1">
        <g transform="matrix(1.00787,0,0,1.00787,0,0)">
            <circle cx="63.5" cy="63.5" r="63.5" style="fill:rgb(74,113,119);"/>
        </g>
        <g transform="matrix(0.0591205,7.17911e-33,-8.83583e-33,0.0591205,-812.856,-1.88385)">
            <path d="M14856.5,388.638C14849.9,389.829 14856.5,388.631 14856.5,388.631L14856.6,388.622C14861.3,387.787 14866.1,387.354 14871.1,387.347L14871.2,387.347C14917,387.405 14954.2,424.613 14954.2,470.434C14954.2,516.255 14917,553.463 14871.2,553.521L14871.1,553.521C14858.1,553.504 14845.8,550.498 14834.8,545.153C14835.8,552.344 14838.2,558.877 14842.4,564.596C14855,582.252 14879.9,587.26 14910.5,585.684C14968.4,582.703 15044.5,553.16 15119,502.534C15123.7,499.314 15128.5,496.008 15133.2,492.616C15179.5,459.277 15218.5,422.18 15247.5,385.521C15258,372.226 15267.2,359.003 15274.9,346.053L15275.2,345.594C15282.1,334.089 15289.8,324.78 15297.9,317.864C15307.4,309.748 15321.4,309.785 15330.9,317.95C15340.4,326.116 15342.5,339.972 15335.9,350.591C15288.1,427.209 15292.8,587.804 15292.8,587.804C15292.8,587.986 15292.8,588.168 15292.8,588.35L15292.8,1432.43C15292.8,1565.93 15238.7,1686.89 15151.2,1774.57C15063.5,1862.54 14942.1,1917 14808.2,1917C14540.8,1917 14323.6,1699.87 14323.6,1432.43C14323.6,1300.52 14376.4,1180.85 14462.1,1093.44C14462.6,1092.92 14463.1,1092.4 14463.6,1091.89L14463.6,1091.86C14489.1,1066.33 14522.9,1049.12 14560.6,1044.63C14567,1043.87 14573.5,1043.48 14580.2,1043.48C14671,1043.48 14744.8,1117.24 14744.8,1208.1C14744.8,1298.96 14671,1372.72 14580.2,1372.72C14512,1372.72 14453.5,1331.25 14428.5,1272.19C14407.7,1321.46 14396.1,1375.61 14396.1,1432.43C14396.1,1659.85 14580.8,1844.49 14808.2,1844.49C15123.1,1844.49 15107.9,1543.83 15107.9,1434.77C15107.9,1434.77 15107.9,585.099 15107.9,585.105C15034.3,627.6 14960.9,650.223 14902.7,651.27C14849.7,652.225 14808.3,635.309 14785.2,603.161C14755.7,562.073 14760,499.357 14797.3,432.242C14798.3,430.403 14799.4,428.559 14800.5,426.712C14800.6,426.403 14800.8,426.097 14801,425.795C14813.3,406.599 14833.2,392.783 14856.5,388.638Z" style="fill:rgb(235,235,235);"/>
        </g>
    </g>
</svg>
